<?xml version="1.0" encoding="utf-8"?>
<!-- Generator: Adobe Illustrator 28.0.0, SVG Export Plug-In . SVG Version: 6.00 Build 0)  -->
<svg version="1.1" id="Layer_1" xmlns="http://www.w3.org/2000/svg" xmlns:xlink="http://www.w3.org/1999/xlink" x="0px" y="0px"
	 viewBox="0 0 1062.93 708.18" style="enable-background:new 0 0 1062.93 708.18;" xml:space="preserve">
<style type="text/css">
	.st0{fill:#0D1623;}
	.st1{fill:none;}
	.st2{fill:#122B4A;}
	.st3{fill:url(#SVGID_1_);}
	.st4{fill:#A6ACBA;}
	.st5{fill:url(#SVGID_00000123408096239605319010000011998384392549990784_);}
	.st6{fill:#BF5BFF;}
	.st7{fill:url(#SVGID_00000047058117644878015620000008668847016014115502_);}
	.st8{fill:#8052F3;}
	.st9{fill:#FFFFFF;}
	.st10{fill:url(#SVGID_00000087387960900105616680000014250184918921147575_);}
</style>
<rect class="st0" width="1062.93" height="708.18"/>
<rect class="st1" width="1062.93" height="708.18"/>
<g>
	<ellipse class="st2" cx="316.99" cy="334.64" rx="95.73" ry="93.41"/>
	<linearGradient id="SVGID_1_" gradientUnits="userSpaceOnUse" x1="207.9812" y1="302.3213" x2="264.6279" y2="351.67">
		<stop  offset="0.4008" style="stop-color:#59BFF9"/>
		<stop  offset="0.4925" style="stop-color:#55B9F6"/>
		<stop  offset="0.6182" style="stop-color:#4AA7EC"/>
		<stop  offset="0.7635" style="stop-color:#378ADD"/>
		<stop  offset="0.9224" style="stop-color:#1E62C7"/>
		<stop  offset="1" style="stop-color:#104CBB"/>
	</linearGradient>
	<path class="st3" d="M267.92,346.38l-16,27.24L249,378.6l-29.23-70.88c-2.96-7.17,0.39-15.38,7.51-18.45h0
		c7.15-3.08,15.44,0.17,18.6,7.29L267.92,346.38z"/>
	<g>
		<g>
			<path class="st4" d="M462.3,385.61h1.58l3.67,12.08l3.53-12.12h1.19l3.53,12.12l3.67-12.08h1.52l-4.59,14.61h-1.23l-3.53-11.77
				l-3.54,11.77h-1.21L462.3,385.61z"/>
			<path class="st4" d="M486.77,385.61h9.29v1.49h-7.84v4.95h7.02v1.49h-7.02v5.08h7.93v1.49h-9.39V385.61z"/>
			<path class="st4" d="M502.23,385.61h5.47c1.47,0,2.63,0.48,3.36,1.28c0.55,0.64,0.83,1.43,0.83,2.32v0.04
				c0,1.89-1.03,2.86-2.04,3.36c1.52,0.5,2.75,1.53,2.75,3.5v0.04c0,2.49-1.85,3.96-4.67,3.96h-5.71V385.61z M510.42,389.44
				c0-1.43-1.01-2.36-2.85-2.36h-3.91v4.99h3.8c1.76,0,2.96-0.87,2.96-2.59V389.44z M511.14,396.01c0-1.57-1.16-2.49-3.42-2.49
				h-4.06v5.12h4.32c1.97,0,3.16-0.95,3.16-2.59V396.01z"/>
			<path class="st4" d="M518.44,394.04v-8.43h1.45v8.33c0,3.15,1.45,4.89,3.93,4.89c2.37,0,3.88-1.62,3.88-4.79v-8.43h1.45v8.31
				c0,4.25-2.15,6.42-5.36,6.42C520.61,400.34,518.44,398.14,518.44,394.04z"/>
			<path class="st4" d="M539.08,387.12h-4.34v-1.51h10.12v1.51h-4.34v12.99h-1.45V387.12z"/>
			<path class="st4" d="M549.56,385.61h1.62l4.57,12.49l4.59-12.49h1.56l-5.53,14.61h-1.29L549.56,385.61z"/>
			<path class="st4" d="M567.72,385.61h1.45v14.5h-1.45V385.61z"/>
			<path class="st4" d="M576.1,385.61h1.45v8.66l7.38-8.66h1.89l-5.53,6.34l5.75,8.16h-1.82l-4.94-7.02l-2.74,3.13v3.9h-1.45V385.61
				z"/>
			<path class="st4" d="M592.46,385.61h1.45v12.99h7.24v1.51h-8.69V385.61z"/>
			<path class="st4" d="M607.03,385.61h1.45v14.5h-1.45V385.61z"/>
			<path class="st4" d="M615.41,385.61h1.36l8.1,11.62v-11.62h1.41v14.5h-1.16l-8.3-11.89v11.89h-1.41V385.61z"/>
			<path class="st4" d="M632.5,392.9v-0.04c0-3.98,2.59-7.5,6.45-7.5c2.17,0,3.51,0.7,4.79,1.93l-0.94,1.24
				c-0.97-0.97-2.11-1.66-3.91-1.66c-2.85,0-4.89,2.71-4.89,5.95v0.04c0,3.46,1.97,6.03,5.09,6.03c1.47,0,2.83-0.64,3.71-1.45v-3.61
				h-3.91v-1.47h5.31v5.78c-1.19,1.22-2.98,2.22-5.16,2.22C635,400.36,632.5,397.04,632.5,392.9z"/>
			<path class="st4" d="M666.54,398.06c-1.18,1.43-2.52,2.26-4.21,2.26c-2.31,0-4.04-1.64-4.04-4.06v-0.04
				c0-1.93,1.12-3.29,3.1-4.19c-0.88-1.16-1.28-2.03-1.28-3.19v-0.04c0-1.91,1.36-3.44,3.4-3.44c1.8,0,3.12,1.47,3.12,3.27v0.04
				c0,1.84-1.14,3.03-3.03,3.77l2.94,3.38c0.57-0.93,1.08-2.01,1.54-3.23l1.19,0.62c-0.57,1.39-1.14,2.59-1.85,3.65l2.24,2.59
				l-1.1,0.95L666.54,398.06z M665.66,397.04l-3.44-4c-1.71,0.73-2.46,1.86-2.46,3.11v0.04c0,1.55,1.1,2.74,2.68,2.74
				C663.68,398.93,664.73,398.2,665.66,397.04z M665.28,388.76v-0.04c0-1.16-0.77-2.01-1.82-2.01c-1.18,0-1.95,0.91-1.95,2.09v0.04
				c0,0.85,0.31,1.51,1.29,2.67C664.43,390.87,665.28,390,665.28,388.76z"/>
			<path class="st4" d="M683.89,385.61h1.45v6.44h7.42v-6.44h1.45v14.5h-1.45v-6.53h-7.42v6.53h-1.45V385.61z"/>
			<path class="st4" d="M700.44,392.9v-0.04c0-4,2.66-7.5,6.58-7.5c3.91,0,6.54,3.46,6.54,7.46v0.04c0,4-2.66,7.5-6.58,7.5
				C703.06,400.36,700.44,396.9,700.44,392.9z M712.04,392.9v-0.04c0-3.29-2.13-5.99-5.07-5.99c-2.94,0-5.03,2.65-5.03,5.95v0.04
				c0,3.29,2.13,5.99,5.07,5.99C709.95,398.85,712.04,396.19,712.04,392.9z"/>
			<path class="st4" d="M718.83,398l0.9-1.2c1.34,1.39,2.63,2.05,4.41,2.05c1.75,0,2.87-1.04,2.87-2.47v-0.04
				c0-1.35-0.64-2.09-3.34-2.76c-2.96-0.73-4.32-1.8-4.32-4.19v-0.04c0-2.26,1.78-3.96,4.22-3.96c1.89,0,3.2,0.6,4.52,1.78
				l-0.84,1.27c-1.19-1.1-2.39-1.58-3.71-1.58c-1.69,0-2.74,1.01-2.74,2.34v0.04c0,1.37,0.64,2.16,3.49,2.82
				c2.86,0.73,4.19,1.89,4.19,4.1v0.04c0,2.49-1.84,4.1-4.39,4.1C722.03,400.32,720.38,399.57,718.83,398z"/>
			<path class="st4" d="M737.73,387.12h-4.34v-1.51h10.12v1.51h-4.34v12.99h-1.45V387.12z"/>
			<path class="st4" d="M749.44,385.61h1.45v14.5h-1.45V385.61z"/>
			<path class="st4" d="M757.81,385.61h1.36l8.1,11.62v-11.62h1.41v14.5h-1.16l-8.3-11.89v11.89h-1.42V385.61z"/>
			<path class="st4" d="M774.91,392.9v-0.04c0-3.98,2.59-7.5,6.45-7.5c2.17,0,3.51,0.7,4.79,1.93l-0.94,1.24
				c-0.97-0.97-2.11-1.66-3.91-1.66c-2.85,0-4.89,2.71-4.89,5.95v0.04c0,3.46,1.97,6.03,5.09,6.03c1.47,0,2.83-0.64,3.71-1.45v-3.61
				h-3.91v-1.47h5.31v5.78c-1.19,1.22-2.98,2.22-5.16,2.22C777.41,400.36,774.91,397.04,774.91,392.9z"/>
		</g>
	</g>
	
		<linearGradient id="SVGID_00000170966627466643642480000018183565600544622488_" gradientUnits="userSpaceOnUse" x1="417.7058" y1="266.5225" x2="363.5374" y2="349.6487">
		<stop  offset="0.2092" style="stop-color:#965BF6"/>
		<stop  offset="0.3764" style="stop-color:#8051F1"/>
		<stop  offset="0.6788" style="stop-color:#5B40E9"/>
		<stop  offset="0.9233" style="stop-color:#3226B8"/>
		<stop  offset="0.9541" style="stop-color:#2C22B1"/>
	</linearGradient>
	<path style="fill:url(#SVGID_00000170966627466643642480000018183565600544622488_);" d="M408.28,267.83
		c-5.75-2.53-12.49-0.33-15.64,5.11l-36.8,63.58l16.57,28.43c9.35-8.75,18.48-25.6,27.92-43.8l14.49-37.59
		C417.2,277.41,414.32,270.48,408.28,267.83z"/>
	<path class="st1" d="M343.64,385.14l-1.25-2.25C342.75,383.68,343.17,384.43,343.64,385.14z"/>
	<path class="st6" d="M372.41,364.95l6.64,11.39l21.28-55.19C390.89,339.35,381.77,356.2,372.41,364.95z"/>
	
		<linearGradient id="SVGID_00000115487518349841733380000005328542551360390576_" gradientUnits="userSpaceOnUse" x1="342.8727" y1="315.7922" x2="325.5685" y2="333.7374">
		<stop  offset="0.0493" style="stop-color:#1D75ED"/>
		<stop  offset="0.585" style="stop-color:#2050DE"/>
		<stop  offset="0.9335" style="stop-color:#2336D4"/>
	</linearGradient>
	<path style="fill:url(#SVGID_00000115487518349841733380000005328542551360390576_);" d="M343.4,358.15
		c-0.79-2.35-1.05-4.06-1.05-4.06S342.61,355.81,343.4,358.15c0.29-0.58,0.6-1.15,0.91-1.71l11.53-19.92l-21.23-36.43l-0.54-0.92
		c-2.16-3.7-5.31-6.71-9.11-8.68v0c-10.38-5.42-23.19-1.74-29.12,8.36l-0.17,0.29l19.98,35.83l26.75,47.92
		c-1.49-3.14-2.91-6.58-2.91-10.43C339.49,367.79,341.11,362.68,343.4,358.15z"/>
	<path class="st6" d="M360.25,371.2c-10.56,0.63-15.07-7.79-16.85-13.05c-2.29,4.53-3.91,9.64-3.91,14.31
		c0,3.85,1.42,7.29,2.91,10.43l1.25,2.25c1.53,2.37,3.59,4.28,6.17,5.53c10.75,5.21,23.68,0.12,27.97-11.03l1.28-3.3l-6.64-11.39
		C368.42,368.69,364.38,370.96,360.25,371.2z"/>
	<path class="st8" d="M343.4,358.15c1.78,5.26,6.29,13.68,16.85,13.05c4.13-0.25,8.16-2.52,12.16-6.25l-16.57-28.43l-11.53,19.92
		C344,357,343.69,357.57,343.4,358.15z"/>
	<polygon class="st9" points="448.7,291.37 468.51,364.12 483.4,364.12 498.48,309.78 512.99,364.12 527.15,364.12 547.57,291.37 
		533.47,291.37 520.18,348.74 504.3,291.37 492.44,291.37 476.33,348.75 463.12,291.37 	"/>
	<path class="st9" d="M573.98,310.91c-25.9-0.35-30.41,26.93-22.93,41.53c7.47,14.59,30.52,16.37,43.09,8.29l-2.6-10.03
		c0,0-26.13,13.5-31.62-9.21h36.88C596.79,341.49,599.88,311.25,573.98,310.91z M560.6,333.15c0,0,0.61-12.6,12.16-12.6
		c11.83,0,11.83,12.6,11.83,12.6H560.6z"/>
	<path class="st9" d="M690.84,310.91c-25.9-0.35-30.41,26.93-22.93,41.53c7.47,14.59,30.52,16.37,43.09,8.29l-2.6-10.03
		c0,0-26.13,13.5-31.62-9.21h36.88C713.65,341.49,716.73,311.25,690.84,310.91z M677.46,333.15c0,0,0.61-12.6,12.16-12.6
		c11.83,0,11.83,12.6,11.83,12.6H677.46z"/>
	<path class="st9" d="M646.62,314.56c-13.61-8.2-23.89-0.52-27.46,2.9v-26.08h-12.12v72.74h9.86l1.57-6.3h0.68
		c3.71,4.65,9.21,7.89,17.35,6.95C660.34,362.03,663.64,324.8,646.62,314.56z M637.79,352.46c-7.16,5.45-14.71,0.22-18.64-4.36
		v-20.74c2.26-2.7,7.71-7.76,15.77-5.71C645.74,324.38,647.04,345.42,637.79,352.46z"/>
	<path class="st9" d="M735.75,321.5v-9.2h-12.53v51.82h12.53v-29.11c4.5-14.2,18.85-12.11,18.85-12.11l1.56-10.6
		C745.73,308.42,738.21,317.82,735.75,321.5z"/>
	<path class="st9" d="M798.74,314.99c-16.94-10.68-35.18,1.66-35.18,1.66l3.83,7.81c7.47-3.83,15.98-4.88,21.18-2.74
		c5.41,2.22,4.84,10.6,4.84,10.6s-27.62-3.12-32.71,10.55c-5.08,13.69,5.47,23.08,17.07,22.03c8.58-0.77,14.14-5.39,16.16-7.75h0.57
		v6.96h10.68c0,0,0-32.01,0-34.19C805.17,327.77,805.17,319.33,798.74,314.99z M793.26,348.79c-10.68,12-22.8,6.94-20.85-2.19
		c1.95-9.13,20.85-5.79,20.85-5.79V348.79z"/>
	
		<linearGradient id="SVGID_00000085227872094882795320000011596920656237786285_" gradientUnits="userSpaceOnUse" x1="317.639" y1="292.151" x2="261.3398" y2="395.3661">
		<stop  offset="0" style="stop-color:#60D9EA"/>
		<stop  offset="1" style="stop-color:#1FBEE7"/>
	</linearGradient>
	<path style="fill:url(#SVGID_00000085227872094882795320000011596920656237786285_);" d="M334.61,300.09l-18.96,34.88l-29.08,53.51
		l-1.98,3.65c-4.73,8.68-15.66,11.77-24.23,6.9l-0.31-0.17c-2.35-1.45-4.17-3.6-5.23-6.15l-5.16-12.5L249,378.6l2.92-4.98l16-27.24
		l27.74-47.25l0.17-0.29c5.94-10.1,18.75-13.78,29.12-8.36v0c3.79,1.98,6.95,4.99,9.11,8.68L334.61,300.09z"/>
</g>
</svg>
