<svg xmlns="http://www.w3.org/2000/svg" width="920" height="260" viewBox="0 0 920 260" fill="none" role="img" aria-label="Webera logo">
  <defs>
    <linearGradient id="weberaGrad" x1="40" y1="40" x2="200" y2="180" gradientUnits="userSpaceOnUse">
      <stop offset="0" stop-color="#22D3EE"/>
      <stop offset="0.52" stop-color="#3B82F6"/>
      <stop offset="1" stop-color="#A855F7"/>
    </linearGradient>

    <radialGradient id="badgeGrad" cx="0" cy="0" r="1" gradientUnits="userSpaceOnUse"
      gradientTransform="translate(120 116) rotate(130) scale(150)">
      <stop offset="0" stop-color="#16233A"/>
      <stop offset="0.55" stop-color="#0B1220"/>
      <stop offset="1" stop-color="#070D18"/>
    </radialGradient>

    <filter id="shadow" x="-40%" y="-40%" width="180%" height="180%" color-interpolation-filters="sRGB">
      <feDropShadow dx="0" dy="16" stdDeviation="18" flood-color="#000000" flood-opacity="0.35"/>
    </filter>

    <filter id="glow" x="-60%" y="-60%" width="220%" height="220%" color-interpolation-filters="sRGB">
      <feGaussianBlur stdDeviation="6" result="b"/>
      <feColorMatrix in="b" type="matrix"
        values="1 0 0 0 0
                0 1 0 0 0
                0 0 1 0 0
                0 0 0 0.25 0" result="g"/>
      <feMerge>
        <feMergeNode in="g"/>
        <feMergeNode in="SourceGraphic"/>
      </feMerge>
    </filter>

    <clipPath id="badgeClip">
      <circle cx="120" cy="116" r="76"/>
    </clipPath>

    <linearGradient id="hi" x1="55" y1="60" x2="190" y2="160" gradientUnits="userSpaceOnUse">
      <stop offset="0" stop-color="#FFFFFF" stop-opacity="0.45"/>
      <stop offset="1" stop-color="#FFFFFF" stop-opacity="0"/>
    </linearGradient>
  </defs>

  <g filter="url(#shadow)">
    <circle cx="120" cy="116" r="78" fill="url(#badgeGrad)"/>
    <circle cx="120" cy="116" r="78" fill="none" stroke="#1F2937" stroke-width="1.5" opacity="0.9"/>
    <path d="M58 88 C78 62 120 52 160 62 C178 66 194 75 204 88 C180 78 154 76 126 82 C97 88 76 102 58 120 Z"
          fill="url(#hi)" opacity="0.32"/>
  </g>

  <g clip-path="url(#badgeClip)" filter="url(#glow)">
    <path
      d="M64 86
         C78 72 96 72 108 86
         L144 128
         C150 136 150 150 142 158
         C134 166 120 166 112 158
         L72 112
         C58 96 56 92 64 86 Z"
      fill="url(#weberaGrad)"
      opacity="0.96"
    />
    <path
      d="M174 74
         C184 82 186 96 178 108
         L142 158
         C134 168 120 170 110 162
         C100 154 98 140 106 128
         L150 70
         C158 58 168 58 174 74 Z"
      fill="url(#weberaGrad)"
      opacity="0.96"
    />
    <path
      d="M106 128
         L144 128
         C150 136 150 150 142 158
         C134 166 120 166 112 158
         C104 150 100 140 106 128 Z"
      fill="#0B1220"
      opacity="0.18"
    />
  </g>

  <text x="235" y="135"
        font-family="Inter, system-ui, -apple-system, Segoe UI, Roboto, Arial, sans-serif"
        font-size="86" font-weight="650"
        letter-spacing="-1.4"
        fill="#FFFFFF">Webera</text>

  <text x="240" y="172"
        font-family="Inter, system-ui, -apple-system, Segoe UI, Roboto, Arial, sans-serif"
        font-size="16" font-weight="600"
        letter-spacing="3"
        fill="#94A3B8">WEBUTVIKLING &amp; HOSTING</text>
</svg>
