<svg xmlns="http://www.w3.org/2000/svg" viewBox="55 120 330 340" width="512" height="512">
  <defs>
    <linearGradient id="grad1" x1="52.62" y1="231.38" x2="140.09" y2="307.58" gradientUnits="userSpaceOnUse">
      <stop offset="0.4" style="stop-color:#59BFF9"/>
      <stop offset="0.49" style="stop-color:#55B9F6"/>
      <stop offset="0.62" style="stop-color:#4AA7EC"/>
      <stop offset="0.76" style="stop-color:#378ADD"/>
      <stop offset="0.92" style="stop-color:#1E62C7"/>
      <stop offset="1" style="stop-color:#104CBB"/>
    </linearGradient>
    <linearGradient id="grad2" x1="376.44" y1="176.11" x2="292.81" y2="304.46" gradientUnits="userSpaceOnUse">
      <stop offset="0.21" style="stop-color:#965BF6"/>
      <stop offset="0.38" style="stop-color:#8051F1"/>
      <stop offset="0.68" style="stop-color:#5B40E9"/>
      <stop offset="0.92" style="stop-color:#3226B8"/>
      <stop offset="0.95" style="stop-color:#2C22B1"/>
    </linearGradient>
    <linearGradient id="grad3" x1="260.9" y1="252.18" x2="234.18" y2="279.89" gradientUnits="userSpaceOnUse">
      <stop offset="0.05" style="stop-color:#1D75ED"/>
      <stop offset="0.59" style="stop-color:#2050DE"/>
      <stop offset="0.93" style="stop-color:#2336D4"/>
    </linearGradient>
    <linearGradient id="grad4" x1="221.94" y1="215.68" x2="135.01" y2="375.05" gradientUnits="userSpaceOnUse">
      <stop offset="0" style="stop-color:#60D9EA"/>
      <stop offset="1" style="stop-color:#1FBEE7"/>
    </linearGradient>
  </defs>

  <!-- Dark background circle -->
  <ellipse fill="#122B4A" cx="221" cy="281" rx="148" ry="144"/>

  <!-- Bottom left gradient piece -->
  <path fill="url(#grad1)" d="M145,299l-25,42l-4,8L71,240c-5-11,1-24,12-28c11-5,24,0,29,11L145,299z"/>

  <!-- Top right purple gradient piece -->
  <path fill="url(#grad2)" d="M362,178c-9-4-19-1-24,8l-57,98l26,44c14-14,29-40,43-68l23-58C376,193,371,182,362,178z"/>

  <!-- Purple accent piece -->
  <path fill="#BF5BFF" d="M307,328l10,18l33-85C335,289,321,315,307,328z"/>

  <!-- Center blue gradient piece -->
  <path fill="url(#grad3)" d="M262,318c-1-4-2-6-2-6s0,2,1,6c0-1,1-2,1-3l18-31l-33-56l-1-1c-3-6-8-10-14-13c-16-8-36-3-45,13l0,0l31,55l41,74c-2-5-4-10-4-16C256,332,258,325,262,318z"/>

  <!-- Bottom purple accent piece -->
  <path fill="#BF5BFF" d="M288,338c-16,1-23-12-26-20c-4,7-6,15-6,22c0,6,2,11,4,16l2,3c2,4,6,7,10,9c17,8,37,0,43-17l2-5l-10-18C300,334,294,337,288,338z"/>

  <!-- Center purple gradient piece -->
  <path fill="#8052F3" d="M262,318c3,8,10,21,26,20c6,0,13-4,19-10l-26-44l-18,31C263,316,262,317,262,318z"/>

  <!-- Large cyan gradient piece -->
  <path fill="url(#grad4)" d="M248,228l-29,54l-45,83l-3,6c-7,13-24,18-37,11l0,0c-4-2-6-6-8-10l-8-19l-1-2l5-8l25-42l43-73l0,0c9-16,29-21,45-13c6,3,11,8,14,13L248,228z"/>
</svg>
