<?xml version="1.0" encoding="utf-8"?>
<!-- Generator: Adobe Illustrator 28.0.0, SVG Export Plug-In . SVG Version: 6.00 Build 0)  -->
<svg version="1.1" id="Layer_1" xmlns="http://www.w3.org/2000/svg" xmlns:xlink="http://www.w3.org/1999/xlink" x="0px" y="0px"
	 viewBox="0 0 1062.93 577.53" style="enable-background:new 0 0 1062.93 577.53;" xml:space="preserve">
<style type="text/css">
	.st0{fill:#122B4A;}
	.st1{fill:url(#SVGID_1_);}
	.st2{fill:#A6ACBA;}
	.st3{fill:url(#SVGID_00000156553792762737322890000001733097388268171939_);}
	.st4{fill:none;}
	.st5{fill:#BF5BFF;}
	.st6{fill:url(#SVGID_00000018925966858990108350000011941922219288773012_);}
	.st7{fill:#8052F3;}
	.st8{fill:#FFFFFF;}
	.st9{fill:url(#SVGID_00000121962119333930850850000006222674974775579046_);}
</style>
<g>
	<ellipse class="st0" cx="220.94" cy="281.28" rx="147.8" ry="144.22"/>
	<linearGradient id="SVGID_1_" gradientUnits="userSpaceOnUse" x1="52.6234" y1="231.383" x2="140.0875" y2="307.5787">
		<stop  offset="0.4008" style="stop-color:#59BFF9"/>
		<stop  offset="0.4925" style="stop-color:#55B9F6"/>
		<stop  offset="0.6182" style="stop-color:#4AA7EC"/>
		<stop  offset="0.7635" style="stop-color:#378ADD"/>
		<stop  offset="0.9224" style="stop-color:#1E62C7"/>
		<stop  offset="1" style="stop-color:#104CBB"/>
	</linearGradient>
	<path class="st1" d="M145.18,299.41l-24.7,42.06l-4.51,7.69L70.83,239.72c-4.56-11.07,0.6-23.75,11.59-28.48l0,0
		c11.04-4.76,23.85,0.27,28.71,11.26L145.18,299.41z"/>
	<g>
		<g>
			<path class="st2" d="M445.29,359.98h2.44l5.67,18.65l5.45-18.72h1.84l5.45,18.72l5.67-18.65h2.35l-7.09,22.55h-1.9l-5.45-18.17
				l-5.47,18.17h-1.87L445.29,359.98z"/>
			<path class="st2" d="M483.08,359.98h14.35v2.3h-12.11v7.65h10.83v2.3h-10.83v7.84h12.25v2.3h-14.49V359.98z"/>
			<path class="st2" d="M506.95,359.98h8.45c2.27,0,4.06,0.74,5.19,1.98c0.85,0.99,1.28,2.21,1.28,3.58v0.06
				c0,2.91-1.59,4.42-3.15,5.18c2.35,0.77,4.25,2.37,4.25,5.41v0.06c0,3.84-2.86,6.11-7.2,6.11h-8.82V359.98z M519.6,365.9
				c0-2.21-1.56-3.65-4.4-3.65h-6.04v7.71h5.87c2.72,0,4.57-1.34,4.57-4V365.9z M520.71,376.04c0-2.43-1.79-3.84-5.28-3.84h-6.27
				v7.9h6.67c3.03,0,4.88-1.47,4.88-4V376.04z"/>
			<path class="st2" d="M531.99,373v-13.02h2.24v12.86c0,4.86,2.24,7.55,6.07,7.55c3.66,0,5.98-2.5,5.98-7.39v-13.02h2.24v12.83
				c0,6.56-3.32,9.92-8.28,9.92C535.33,382.72,531.99,379.33,531.99,373z"/>
			<path class="st2" d="M563.85,362.31h-6.69v-2.34h15.63v2.34h-6.69v20.06h-2.24V362.31z"/>
			<path class="st2" d="M580.04,359.98h2.5l7.06,19.29l7.09-19.29h2.41l-8.54,22.55h-1.99L580.04,359.98z"/>
			<path class="st2" d="M608.08,359.98h2.24v22.39h-2.24V359.98z"/>
			<path class="st2" d="M621,359.98h2.24v13.37l11.4-13.37h2.92l-8.54,9.79l8.88,12.61h-2.81l-7.63-10.84l-4.23,4.83v6.01H621
				V359.98z"/>
			<path class="st2" d="M646.26,359.98h2.24v20.06h11.17v2.34h-13.41V359.98z"/>
			<path class="st2" d="M668.77,359.98h2.24v22.39h-2.24V359.98z"/>
			<path class="st2" d="M681.7,359.98h2.1l12.51,17.95v-17.95h2.18v22.39h-1.79l-12.82-18.36v18.36h-2.18V359.98z"/>
			<path class="st2" d="M708.09,371.24v-0.06c0-6.14,4-11.58,9.95-11.58c3.35,0,5.42,1.09,7.4,2.98l-1.45,1.92
				c-1.5-1.5-3.26-2.56-6.04-2.56c-4.4,0-7.54,4.19-7.54,9.18v0.06c0,5.34,3.04,9.31,7.86,9.31c2.27,0,4.37-0.99,5.73-2.24v-5.57
				h-6.04v-2.27h8.2v8.93c-1.84,1.89-4.59,3.42-7.97,3.42C711.95,382.76,708.09,377.64,708.09,371.24z"/>
			<path class="st2" d="M760.66,379.2c-1.82,2.21-3.88,3.49-6.5,3.49c-3.57,0-6.24-2.53-6.24-6.27v-0.06c0-2.98,1.73-5.09,4.79-6.46
				c-1.36-1.79-1.98-3.14-1.98-4.93v-0.06c0-2.94,2.1-5.31,5.24-5.31c2.78,0,4.82,2.27,4.82,5.05v0.06c0,2.85-1.76,4.67-4.68,5.82
				l4.54,5.21c0.88-1.44,1.67-3.1,2.38-4.99l1.84,0.96c-0.88,2.14-1.76,4-2.86,5.63l3.46,4l-1.7,1.47L760.66,379.2z M759.3,377.64
				l-5.3-6.17c-2.64,1.12-3.8,2.88-3.8,4.8v0.06c0,2.4,1.7,4.22,4.14,4.22C756.23,380.55,757.85,379.43,759.3,377.64z M758.7,364.84
				v-0.06c0-1.79-1.19-3.1-2.81-3.1c-1.82,0-3.01,1.41-3.01,3.23v0.06c0,1.31,0.48,2.34,1.99,4.13
				C757.4,368.1,758.7,366.76,758.7,364.84z"/>
			<path class="st2" d="M787.44,359.98h2.24v9.95h11.46v-9.95h2.24v22.39h-2.24v-10.08h-11.46v10.08h-2.24V359.98z"/>
			<path class="st2" d="M812.99,371.24v-0.06c0-6.17,4.11-11.58,10.15-11.58c6.04,0,10.1,5.34,10.1,11.52v0.06
				c0,6.17-4.11,11.58-10.15,11.58C817.04,382.76,812.99,377.41,812.99,371.24z M830.91,371.24v-0.06c0-5.09-3.29-9.25-7.83-9.25
				s-7.77,4.09-7.77,9.18v0.06c0,5.09,3.29,9.25,7.83,9.25S830.91,376.33,830.91,371.24z"/>
			<path class="st2" d="M841.39,379.11l1.39-1.86c2.07,2.14,4.05,3.17,6.81,3.17c2.69,0,4.43-1.6,4.43-3.81v-0.06
				c0-2.08-0.99-3.23-5.16-4.26c-4.57-1.12-6.66-2.78-6.66-6.46v-0.06c0-3.49,2.75-6.11,6.52-6.11c2.92,0,4.93,0.93,6.98,2.75
				l-1.3,1.95c-1.84-1.7-3.69-2.43-5.73-2.43c-2.61,0-4.23,1.57-4.23,3.61v0.06c0,2.11,0.99,3.33,5.39,4.35
				c4.42,1.12,6.47,2.91,6.47,6.33v0.06c0,3.84-2.83,6.33-6.78,6.33C846.33,382.69,843.78,381.54,841.39,379.11z"/>
			<path class="st2" d="M870.57,362.31h-6.69v-2.34h15.63v2.34h-6.69v20.06h-2.24V362.31z"/>
			<path class="st2" d="M888.65,359.98h2.24v22.39h-2.24V359.98z"/>
			<path class="st2" d="M901.58,359.98h2.1l12.51,17.95v-17.95h2.18v22.39h-1.79l-12.82-18.36v18.36h-2.19V359.98z"/>
			<path class="st2" d="M927.97,371.24v-0.06c0-6.14,4-11.58,9.95-11.58c3.35,0,5.42,1.09,7.4,2.98l-1.45,1.92
				c-1.5-1.5-3.26-2.56-6.04-2.56c-4.4,0-7.54,4.19-7.54,9.18v0.06c0,5.34,3.04,9.31,7.86,9.31c2.27,0,4.37-0.99,5.73-2.24v-5.57
				h-6.04v-2.27h8.2v8.93c-1.84,1.89-4.59,3.42-7.97,3.42C931.83,382.76,927.97,377.64,927.97,371.24z"/>
		</g>
	</g>
	
		<linearGradient id="SVGID_00000144316001977896626080000008332396071923064454_" gradientUnits="userSpaceOnUse" x1="376.4443" y1="176.1086" x2="292.8065" y2="304.4578">
		<stop  offset="0.2092" style="stop-color:#965BF6"/>
		<stop  offset="0.3764" style="stop-color:#8051F1"/>
		<stop  offset="0.6788" style="stop-color:#5B40E9"/>
		<stop  offset="0.9233" style="stop-color:#3226B8"/>
		<stop  offset="0.9541" style="stop-color:#2C22B1"/>
	</linearGradient>
	<path style="fill:url(#SVGID_00000144316001977896626080000008332396071923064454_);" d="M361.89,178.12
		c-8.89-3.9-19.29-0.5-24.15,7.9l-56.82,98.17l25.58,43.89c14.44-13.51,28.53-39.52,43.11-67.63L372,202.41
		C375.66,192.92,371.21,182.22,361.89,178.12z"/>
	<path class="st4" d="M262.09,359.26l-1.93-3.47C260.72,357,261.35,358.17,262.09,359.26z"/>
	<path class="st5" d="M306.51,328.08l10.25,17.59l32.86-85.22C335.04,288.56,320.95,314.58,306.51,328.08z"/>
	
		<linearGradient id="SVGID_00000166648172960451878180000008354253685746009510_" gradientUnits="userSpaceOnUse" x1="260.8998" y1="252.1825" x2="234.1815" y2="279.8904">
		<stop  offset="0.0493" style="stop-color:#1D75ED"/>
		<stop  offset="0.585" style="stop-color:#2050DE"/>
		<stop  offset="0.9335" style="stop-color:#2336D4"/>
	</linearGradient>
	<path style="fill:url(#SVGID_00000166648172960451878180000008354253685746009510_);" d="M261.71,317.59
		c-1.23-3.62-1.61-6.28-1.61-6.28S260.49,313.97,261.71,317.59c0.45-0.9,0.92-1.78,1.4-2.64l17.81-30.75l-32.78-56.25l-0.83-1.42
		c-3.33-5.71-8.21-10.35-14.06-13.41h0c-16.02-8.37-35.8-2.69-44.97,12.9l-0.27,0.45l30.85,55.33l41.3,74
		c-2.3-4.84-4.49-10.15-4.49-16.1C255.67,332.47,258.17,324.57,261.71,317.59z"/>
	<path class="st5" d="M287.73,337.74c-16.31,0.98-23.27-12.03-26.02-20.15c-3.54,6.99-6.04,14.88-6.04,22.1
		c0,5.95,2.19,11.26,4.49,16.1l1.93,3.47c2.36,3.65,5.54,6.61,9.52,8.53c16.6,8.04,36.56,0.18,43.18-17.03l1.97-5.09l-10.25-17.59
		C300.34,333.85,294.1,337.36,287.73,337.74z"/>
	<path class="st7" d="M261.71,317.59c2.75,8.12,9.71,21.13,26.02,20.15c6.37-0.38,12.61-3.89,18.78-9.66l-25.58-43.89l-17.81,30.75
		C262.63,315.81,262.17,316.69,261.71,317.59z"/>
	<polygon class="st8" points="424.3,214.47 454.88,326.81 477.89,326.81 501.16,242.9 523.56,326.81 545.43,326.81 576.96,214.47 
		555.19,214.47 534.67,303.06 510.15,214.47 491.84,214.47 466.95,303.07 446.56,214.47 	"/>
	<path class="st8" d="M617.74,244.64c-39.98-0.53-46.96,41.58-35.41,64.13c11.53,22.53,47.12,25.27,66.53,12.8l-4.02-15.49
		c0,0-40.35,20.84-48.83-14.22h56.95C652.96,291.86,657.72,245.17,617.74,244.64z M597.08,278.98c0,0,0.94-19.45,18.77-19.45
		c18.26,0,18.26,19.45,18.26,19.45H597.08z"/>
	<path class="st8" d="M798.17,244.64c-39.98-0.53-46.96,41.58-35.41,64.13c11.53,22.53,47.12,25.27,66.53,12.8l-4.02-15.49
		c0,0-40.35,20.84-48.83-14.22h56.95C833.39,291.86,838.15,245.17,798.17,244.64z M777.51,278.98c0,0,0.94-19.45,18.77-19.45
		c18.26,0,18.26,19.45,18.26,19.45H777.51z"/>
	<path class="st8" d="M729.89,250.28c-21.01-12.66-36.89-0.8-42.4,4.47v-40.27h-18.71V326.8H684l2.42-9.72h1.05
		c5.72,7.18,14.22,12.19,26.79,10.73C751.09,323.58,756.17,266.1,729.89,250.28z M716.27,308.8c-11.06,8.41-22.71,0.34-28.78-6.74
		v-32.02c3.49-4.16,11.9-11.98,24.35-8.82C728.54,265.44,730.55,297.92,716.27,308.8z"/>
	<path class="st8" d="M867.52,261v-14.21h-19.34v80.02h19.34v-44.95c6.95-21.92,29.11-18.7,29.11-18.7l2.41-16.37
		C882.92,240.8,871.32,255.32,867.52,261z"/>
	<path class="st8" d="M964.77,250.94c-26.16-16.49-54.32,2.56-54.32,2.56l5.91,12.06c11.53-5.91,24.68-7.53,32.7-4.23
		c8.35,3.43,7.47,16.37,7.47,16.37s-42.65-4.82-50.51,16.29c-7.84,21.13,8.45,35.63,26.36,34.01c13.25-1.19,21.84-8.33,24.95-11.96
		h0.87v10.75h16.49c0,0,0-49.42,0-52.78C974.7,270.67,974.7,257.65,964.77,250.94z M956.32,303.13
		c-16.49,18.52-35.2,10.71-32.19-3.39c3.02-14.09,32.19-8.94,32.19-8.94V303.13z"/>
	
		<linearGradient id="SVGID_00000169536187650107991550000018419762995249075350_" gradientUnits="userSpaceOnUse" x1="221.9382" y1="215.6797" x2="135.0107" y2="375.0469">
		<stop  offset="0" style="stop-color:#60D9EA"/>
		<stop  offset="1" style="stop-color:#1FBEE7"/>
	</linearGradient>
	<path style="fill:url(#SVGID_00000169536187650107991550000018419762995249075350_);" d="M248.14,227.94l-29.27,53.85l-44.91,82.61
		l-3.06,5.64c-7.3,13.4-24.19,18.18-37.42,10.65l-0.47-0.27c-3.63-2.24-6.44-5.56-8.08-9.5l-7.96-19.3l-1.01-2.46l4.51-7.69
		l24.7-42.06l42.84-72.95l0.27-0.45c9.17-15.59,28.95-21.27,44.97-12.9h0c5.86,3.06,10.73,7.7,14.06,13.41L248.14,227.94z"/>
</g>
</svg>
